<svg xmlns="http://www.w3.org/2000/svg" xmlns:xlink="http://www.w3.org/1999/xlink" viewBox="-6123.682 15546 4524.283 3120.813"><defs><style>.a{fill:#fff;stroke:#95989a;}.b{opacity:0.9;clip-path:url(#a);}.c{fill:url(#b);}.d{opacity:0.38;}.d,.e{fill:url(#c);}.f{fill:url(#f);}</style><clipPath id="a"><rect class="a" width="4524.283" height="3120.813" transform="translate(490 325)"/></clipPath><linearGradient id="b" x1="0.5" x2="0.5" y2="1" gradientUnits="objectBoundingBox"><stop offset="0" stop-color="#9cceff"/><stop offset="0.711" stop-color="#258afc"/><stop offset="1" stop-color="#aed7ff"/></linearGradient><linearGradient id="c" x1="0.491" y1="-0.018" x2="0.5" y2="1" gradientUnits="objectBoundingBox"><stop offset="0" stop-color="#2492ff"/><stop offset="1" stop-color="#fff" stop-opacity="0"/></linearGradient><linearGradient id="f" x1="0.491" y1="-0.018" x2="0.5" y2="1" gradientUnits="objectBoundingBox"><stop offset="0" stop-color="#2492ff"/><stop offset="0.648" stop-color="#a1d0ff" stop-opacity="0.431"/><stop offset="1" stop-color="#fff" stop-opacity="0"/></linearGradient></defs><g class="b" transform="translate(-6613.682 15221)"><g transform="translate(-2426.275 -1774.606)"><path class="c" d="M0,3198.074,4556.221,0V3198.074H0Z" transform="translate(3446.026 2252.065)"/><g transform="translate(0)"><path class="d" d="M0,5978.251,10526.5,0l-2.286,5974.2-7240.529,2.785Z" transform="matrix(0.996, -0.087, 0.087, 0.996, 0, 917.445)"/><path class="e" d="M0,3199.053,4554.04,0V3199.053H0Z" transform="translate(3448.207 2251.003)"/><path class="e" d="M0,3199.053,4554.04,0V3199.053H0Z" transform="translate(3591.71 2805.036)"/><path class="f" d="M0,3199.053,4554.04,0V3199.053H0Z" transform="translate(3591.71 3386.095)"/></g></g></g></svg>