<?xml version="1.0" encoding="utf-8"?>
<!-- Generator: Adobe Illustrator 23.0.2, SVG Export Plug-In . SVG Version: 6.00 Build 0)  -->
<svg version="1.1" id="Layer_1" xmlns="http://www.w3.org/2000/svg" xmlns:xlink="http://www.w3.org/1999/xlink" x="0px" y="0px"
	 viewBox="0 0 658.83 154.56" style="enable-background:new 0 0 658.83 154.56;" xml:space="preserve">
<style type="text/css">
	.st0{fill:#F8F8FF;}
	.st1{fill:none;}
</style>
<g>
	<path class="st0" d="M91.14,100.31c-1.87,3.87-4.64,7.23-8.33,10.08c-3.69,2.85-8.33,5.09-13.93,6.72
		c-5.6,1.63-12.09,2.45-19.46,2.45c-5.04,0-9.96-0.42-14.77-1.26c-4.81-0.84-9.31-2.03-13.51-3.57c-4.2-1.54-8.1-3.36-11.69-5.46
		c-3.59-2.1-6.74-4.36-9.45-6.79L16.24,81.9c2.52,1.96,5.23,3.76,8.12,5.39c2.89,1.63,5.76,3.03,8.61,4.2
		c2.85,1.17,5.6,2.08,8.26,2.73c2.66,0.65,5.06,0.98,7.21,0.98c6.07,0,9.1-1.49,9.1-4.48c0-1.59-1.26-2.96-3.78-4.13
		c-2.52-1.17-5.69-2.36-9.52-3.57c-3.83-1.21-7.96-2.59-12.39-4.13c-4.43-1.54-8.56-3.52-12.39-5.95c-3.83-2.43-7-5.39-9.52-8.89
		S6.16,56.23,6.16,51.1c0-4.2,0.86-8.14,2.59-11.83c1.73-3.69,4.34-6.93,7.84-9.73c3.5-2.8,7.86-5.02,13.09-6.65
		c5.23-1.63,11.34-2.45,18.34-2.45c5.6,0,10.71,0.47,15.33,1.4c4.62,0.93,8.82,2.17,12.6,3.71c3.78,1.54,7.16,3.29,10.15,5.25
		c2.99,1.96,5.6,4.01,7.84,6.16l-16.52,18.2c-4.95-3.17-9.96-5.69-15.05-7.56c-5.09-1.87-9.5-2.8-13.23-2.8
		c-2.33,0-4.2,0.35-5.6,1.05s-2.1,1.84-2.1,3.43c0,1.59,1.31,2.94,3.92,4.06c2.61,1.12,5.86,2.26,9.73,3.43
		c3.87,1.17,8.07,2.47,12.6,3.92c4.53,1.45,8.73,3.34,12.6,5.67c3.87,2.33,7.12,5.2,9.73,8.61c2.61,3.41,3.92,7.68,3.92,12.81
		C93.94,92.26,93,96.44,91.14,100.31z"/>
	<path class="st0" d="M100.52,116.62V23.38h81.62v25.76h-43.12v11.48h27.16v16.94h-27.16v11.48h43.12v27.58H100.52z"/>
	<path class="st0" d="M274.54,106.12c-2.71,2.71-5.93,5.06-9.66,7.07c-3.73,2.01-7.93,3.57-12.6,4.69
		c-4.67,1.12-9.75,1.68-15.26,1.68c-7.56,0-14.4-1-20.51-3.01c-6.11-2.01-11.34-4.81-15.68-8.4c-4.34-3.59-7.68-7.89-10.01-12.88
		c-2.33-4.99-3.5-10.52-3.5-16.59V61.32c0-5.97,1.17-11.48,3.5-16.52c2.33-5.04,5.67-9.36,10.01-12.95
		c4.34-3.59,9.57-6.39,15.68-8.4c6.11-2.01,12.95-3.01,20.51-3.01c5.51,0,10.62,0.56,15.33,1.68c4.71,1.12,8.94,2.66,12.67,4.62
		c3.73,1.96,6.95,4.27,9.66,6.93c2.71,2.66,4.76,5.53,6.16,8.61l-22.82,15.26c-1.96-2.71-4.43-4.99-7.42-6.86
		c-2.99-1.87-6.44-2.8-10.36-2.8c-4.48,0-7.89,1.28-10.22,3.85c-2.33,2.57-3.5,6.04-3.5,10.43v15.12c0,4.39,1.17,7.86,3.5,10.43
		c2.33,2.57,5.74,3.85,10.22,3.85c3.92,0,7.37-0.93,10.36-2.8c2.99-1.87,5.46-4.15,7.42-6.86l22.96,15.54
		C279.39,100.52,277.24,103.41,274.54,106.12z"/>
	<path class="st0" d="M346.35,116.62c-1.21,0-2.33-0.4-3.36-1.19c-1.03-0.79-1.94-1.84-2.73-3.15c-0.79-1.31-1.4-2.85-1.82-4.62
		c-0.42-1.77-0.63-3.59-0.63-5.46V90.58c0-2.43-0.44-4.36-1.33-5.81c-0.89-1.45-2.78-2.17-5.67-2.17h-5.88v34.02h-38.36V23.38h56.28
		c5.23,0,9.89,0.58,14,1.75c4.11,1.17,7.56,2.8,10.36,4.9c2.8,2.1,4.95,4.6,6.44,7.49c1.49,2.89,2.24,6.07,2.24,9.52v5.6
		c0,4.48-1.42,8.42-4.27,11.83c-2.85,3.41-7.12,5.76-12.81,7.07c3.08,0.37,5.67,1.1,7.77,2.17c2.1,1.07,3.8,2.4,5.11,3.99
		c1.31,1.59,2.24,3.36,2.8,5.32s0.84,4.01,0.84,6.16v11.9c0,2.99,0.37,5.62,1.12,7.91c0.75,2.29,1.77,4.5,3.08,6.65v0.98H346.35z
		 M337.95,53.06c0-2.05-0.56-3.5-1.68-4.34c-1.12-0.84-2.94-1.26-5.46-1.26h-5.88V65.1h5.88c2.52,0,4.34-0.51,5.46-1.54
		c1.12-1.03,1.68-2.57,1.68-4.62V53.06z"/>
	<path class="st0" d="M384.43,116.62V23.38h81.62v25.76h-43.12v11.48h27.16v16.94h-27.16v11.48h43.12v27.58H384.43z"/>
	<path class="st0" d="M558.03,100.31c-1.87,3.87-4.64,7.23-8.33,10.08c-3.69,2.85-8.33,5.09-13.93,6.72
		c-5.6,1.63-12.09,2.45-19.46,2.45c-5.04,0-9.96-0.42-14.77-1.26c-4.81-0.84-9.31-2.03-13.51-3.57c-4.2-1.54-8.1-3.36-11.69-5.46
		c-3.59-2.1-6.74-4.36-9.45-6.79l16.24-20.58c2.52,1.96,5.23,3.76,8.12,5.39c2.89,1.63,5.76,3.03,8.61,4.2
		c2.85,1.17,5.6,2.08,8.26,2.73c2.66,0.65,5.06,0.98,7.21,0.98c6.07,0,9.1-1.49,9.1-4.48c0-1.59-1.26-2.96-3.78-4.13
		c-2.52-1.17-5.69-2.36-9.52-3.57c-3.83-1.21-7.96-2.59-12.39-4.13c-4.43-1.54-8.56-3.52-12.39-5.95c-3.83-2.43-7-5.39-9.52-8.89
		c-2.52-3.5-3.78-7.82-3.78-12.95c0-4.2,0.86-8.14,2.59-11.83c1.73-3.69,4.34-6.93,7.84-9.73c3.5-2.8,7.86-5.02,13.09-6.65
		c5.23-1.63,11.34-2.45,18.34-2.45c5.6,0,10.71,0.47,15.33,1.4c4.62,0.93,8.82,2.17,12.6,3.71s7.16,3.29,10.15,5.25
		c2.99,1.96,5.6,4.01,7.84,6.16l-16.52,18.2c-4.95-3.17-9.96-5.69-15.05-7.56c-5.09-1.87-9.5-2.8-13.23-2.8
		c-2.33,0-4.2,0.35-5.6,1.05s-2.1,1.84-2.1,3.43c0,1.59,1.31,2.94,3.92,4.06c2.61,1.12,5.86,2.26,9.73,3.43
		c3.87,1.17,8.07,2.47,12.6,3.92c4.53,1.45,8.73,3.34,12.6,5.67c3.87,2.33,7.12,5.2,9.73,8.61c2.61,3.41,3.92,7.68,3.92,12.81
		C560.83,92.26,559.9,96.44,558.03,100.31z"/>
	<path class="st0" d="M567.41,116.62V23.38h38.36v93.24H567.41z"/>
	<path class="st0" d="M615.57,116.62V23.38h38.36v93.24H615.57z"/>
</g>
<polygon class="st1" points="40.62,75.24 250.96,75.24 250.96,75.24 40.62,75.24 "/>
</svg>
